<?xml version="1.0" encoding="UTF-8"?>
<svg id="_レイヤー_2" data-name="レイヤー 2" xmlns="http://www.w3.org/2000/svg" viewBox="0 0 88.66 125.54">
  <defs>
    <style>
      .cls-1 {
        fill: #fff;
      }
    </style>
  </defs>
  <g id="_レイヤー_1-2" data-name="レイヤー 1">
    <path class="cls-1" d="M0,25l8.07,90.49,36.21,10.05,36.31-10.06,8.08-90.48H0ZM69.21,75.49l-2.35,21.89v1.88s-22.53,6.3-22.53,6.3h0s-.02.02-.02.02l-22.72-6.22-1.54-17.34h11.14l.79,8.77,12.35,3.29h0s0-.02,0-.02l12.39-3.5,1.31-14.55h-25.91l-.22-2.36-.51-5.65-.26-3h27.89l1.01-11H17.56l-.22-2.59-.51-6.03-.26-3.38h55.6l-.27,3.33-2.68,30.15M69.33,13.37l-7.15-8.37h7.15V0h-16v4.36l8.39,7.64h-8.39v5h16v-3.63ZM50.33,13.37l-6.81-8.37h6.81V0h-15v4.36l7.73,7.64h-7.73v5h15v-3.63ZM32.33,12h-8v-7h8V0h-14v17h14v-5Z"/>
  </g>
</svg>