<?xml version="1.0" encoding="UTF-8"?>
<svg id="_レイヤー_2" data-name="レイヤー 2" xmlns="http://www.w3.org/2000/svg" viewBox="0 0 88.86 124.97">
  <defs>
    <style>
      .cls-1 {
        fill: #fff;
      }
    </style>
  </defs>
  <g id="_レイヤー_1-2" data-name="レイヤー 1">
    <path class="cls-1" d="M0,25.37l8.09,89.92,36.29,9.68,36.39-9.5,8.1-90.1H0ZM72.04,45.84l-.51,5.83-.22,2.69H28.74l1.02,12h40.54l-.27,2.23-2.61,28.91-.19,1.69-22.79,6.13h0s-.03,0-.03,0l-22.78-5.92-1.55-17.06h11.17l.79,8.46,12.39,3.14v-.23s0,.01,0,.01l12.41-2.65,1.3-13.73H19.58l-2.73-30.84-.27-3.16h55.72l-.27,2.47ZM8.39,0h5.62v5.56h5.14V0h5.62v16.82h-5.62v-5.63h-5.14v5.63h-5.62S8.39,0,8.39,0ZM32.17,5.58h-4.95V0h15.52v5.58h-4.95v11.24h-5.62s0-11.24,0-11.24ZM45.21,0h5.86l3.61,5.91,3.6-5.91h5.86v16.82h-5.6v-8.34l-3.87,5.98h-.1l-3.87-5.98v8.34h-5.5V0h0ZM66.94,0h5.62v11.26h7.91v5.56h-13.53V0Z"/>
  </g>
</svg>