<?xml version="1.0" encoding="UTF-8"?>
<svg id="_レイヤー_2" data-name="レイヤー 2" xmlns="http://www.w3.org/2000/svg" viewBox="0 0 125 125">
  <defs>
    <style>
      .cls-1 {
        fill: #fff;
      }
    </style>
  </defs>
  <g id="_レイヤー_1-2" data-name="レイヤー 1">
    <path class="cls-1" d="M0,0v125h125V0H0ZM66.12,106.51c-1.85,3.75-5.37,6.21-9.45,7.4-6.27,1.44-12.27.62-16.73-2.06-2.99-1.83-5.32-4.65-6.9-7.9l9.52-5.83c.08.04.33.49.67,1.07,1.21,2.03,2.26,3.47,4.32,4.49,2.02.69,6.46,1.13,8.17-2.43,1.05-1.81.71-7.63.71-14.07,0-10.11.05-20.19.05-30.19h11.71c0,11,.06,21.42,0,32.15.03,6.58.6,12.45-2.07,17.36ZM114.69,103.21c-4.07,13.92-26.76,14.37-35.83,5.18-1.92-2.17-3.12-3.3-4.26-5.79q4.82-2.77,9.51-5.49c2.55,3.92,4.9,6.07,9.14,6.95,5.75.7,11.53-1.27,10.23-7.38-1.33-4.99-11.77-6.2-18.87-11.53-7.21-4.84-8.9-16.61-2.97-23.33,1.97-2.49,5.34-4.34,8.88-5.24l3.69-.48c7.08-.14,11.51,1.73,14.76,5.35.9.92,1.64,1.9,3.02,4.04-3.77,2.4-3.76,2.38-9.16,5.88-1.15-2.49-3.07-4.05-5.09-4.72-3.14-.95-7.1.08-7.93,3.4-.29,1.02-.23,1.97.23,3.67,1.27,2.9,5.54,4.17,9.38,5.93,11.03,4.47,14.76,9.27,15.67,14.98.88,4.92-.21,8.1-.38,8.58Z"/>
  </g>
</svg>